<mxfile host="app.diagrams.net" agent="Mozilla/5.0 (Windows NT 10.0; Win64; x64; rv:136.0) Gecko/20100101 Firefox/136.0" version="26.1.0">
  <diagram id="C5RBs43oDa-KdzZeNtuy" name="Page-1">
    <mxGraphModel dx="1290" dy="1707" grid="1" gridSize="10" guides="1" tooltips="1" connect="1" arrows="1" fold="1" page="1" pageScale="1" pageWidth="827" pageHeight="1169" math="0" shadow="0">
      <root>
        <mxCell id="WIyWlLk6GJQsqaUBKTNV-0" />
        <mxCell id="WIyWlLk6GJQsqaUBKTNV-1" parent="WIyWlLk6GJQsqaUBKTNV-0" />
        <mxCell id="Ytw2WS5rdy1qP2I7gWzr-2" value="IFigure" style="swimlane;fontStyle=1;align=center;verticalAlign=top;childLayout=stackLayout;horizontal=1;startSize=26;horizontalStack=0;resizeParent=1;resizeParentMax=0;resizeLast=0;collapsible=1;marginBottom=0;whiteSpace=wrap;html=1;" vertex="1" parent="WIyWlLk6GJQsqaUBKTNV-1">
          <mxGeometry x="325" y="264" width="190" height="150" as="geometry" />
        </mxCell>
        <mxCell id="Ytw2WS5rdy1qP2I7gWzr-3" value="&lt;div&gt;&lt;div&gt;char Color {get; set}&lt;/div&gt;&lt;div&gt;char BackgroundÐ¡olor {get; set}&lt;/div&gt;&lt;/div&gt;&lt;div&gt;int CenterX {get; set;}&lt;/div&gt;&lt;div&gt;int CenterY {get; set}&lt;/div&gt;&lt;div&gt;String? Name {get; set;}&lt;/div&gt;" style="text;strokeColor=none;fillColor=none;align=left;verticalAlign=top;spacingLeft=4;spacingRight=4;overflow=hidden;rotatable=0;points=[[0,0.5],[1,0.5]];portConstraint=eastwest;whiteSpace=wrap;html=1;" vertex="1" parent="Ytw2WS5rdy1qP2I7gWzr-2">
          <mxGeometry y="26" width="190" height="84" as="geometry" />
        </mxCell>
        <mxCell id="Ytw2WS5rdy1qP2I7gWzr-4" value="" style="line;strokeWidth=1;fillColor=none;align=left;verticalAlign=middle;spacingTop=-1;spacingLeft=3;spacingRight=3;rotatable=0;labelPosition=right;points=[];portConstraint=eastwest;strokeColor=inherit;" vertex="1" parent="Ytw2WS5rdy1qP2I7gWzr-2">
          <mxGeometry y="110" width="190" height="40" as="geometry" />
        </mxCell>
        <mxCell id="Ytw2WS5rdy1qP2I7gWzr-17" value="Ellipse" style="swimlane;fontStyle=1;align=center;verticalAlign=top;childLayout=stackLayout;horizontal=1;startSize=26;horizontalStack=0;resizeParent=1;resizeParentMax=0;resizeLast=0;collapsible=1;marginBottom=0;whiteSpace=wrap;html=1;" vertex="1" parent="WIyWlLk6GJQsqaUBKTNV-1">
          <mxGeometry x="80" y="483" width="190" height="158" as="geometry" />
        </mxCell>
        <mxCell id="Ytw2WS5rdy1qP2I7gWzr-18" value="&lt;div&gt;&lt;div&gt;char Color {get; set;}&lt;/div&gt;&lt;div&gt;char BackgroundColor {get; set;}&lt;/div&gt;int CenterX {get; set;}&lt;/div&gt;&lt;div&gt;int CenterY {get; set;}&lt;/div&gt;&lt;div&gt;int FirstRadius {get; set;}&lt;/div&gt;&lt;div&gt;int SecondRadius {get; set}&lt;/div&gt;&lt;div&gt;String? Name {get; set;}&lt;/div&gt;" style="text;strokeColor=none;fillColor=none;align=left;verticalAlign=top;spacingLeft=4;spacingRight=4;overflow=hidden;rotatable=0;points=[[0,0.5],[1,0.5]];portConstraint=eastwest;whiteSpace=wrap;html=1;" vertex="1" parent="Ytw2WS5rdy1qP2I7gWzr-17">
          <mxGeometry y="26" width="190" height="124" as="geometry" />
        </mxCell>
        <mxCell id="Ytw2WS5rdy1qP2I7gWzr-19" value="" style="line;strokeWidth=1;fillColor=none;align=left;verticalAlign=middle;spacingTop=-1;spacingLeft=3;spacingRight=3;rotatable=0;labelPosition=right;points=[];portConstraint=eastwest;strokeColor=inherit;" vertex="1" parent="Ytw2WS5rdy1qP2I7gWzr-17">
          <mxGeometry y="150" width="190" height="8" as="geometry" />
        </mxCell>
        <mxCell id="Ytw2WS5rdy1qP2I7gWzr-21" value="Rectangle" style="swimlane;fontStyle=1;align=center;verticalAlign=top;childLayout=stackLayout;horizontal=1;startSize=26;horizontalStack=0;resizeParent=1;resizeParentMax=0;resizeLast=0;collapsible=1;marginBottom=0;whiteSpace=wrap;html=1;" vertex="1" parent="WIyWlLk6GJQsqaUBKTNV-1">
          <mxGeometry x="325" y="483" width="190" height="158" as="geometry" />
        </mxCell>
        <mxCell id="Ytw2WS5rdy1qP2I7gWzr-22" value="&lt;div&gt;&lt;div&gt;char Color {get; set;}&lt;/div&gt;&lt;div&gt;char BackgroundColor {get; set;}&lt;/div&gt;&lt;/div&gt;&lt;div&gt;int CenterX {get; set;}&lt;/div&gt;&lt;div&gt;int CenterY {get; set;}&lt;/div&gt;&lt;div&gt;int Length {get; set;}&lt;/div&gt;&lt;div&gt;int Width {get; set;} &lt;br&gt;&lt;/div&gt;&lt;div&gt;String? Name {get; set;}&lt;/div&gt;" style="text;strokeColor=none;fillColor=none;align=left;verticalAlign=top;spacingLeft=4;spacingRight=4;overflow=hidden;rotatable=0;points=[[0,0.5],[1,0.5]];portConstraint=eastwest;whiteSpace=wrap;html=1;" vertex="1" parent="Ytw2WS5rdy1qP2I7gWzr-21">
          <mxGeometry y="26" width="190" height="124" as="geometry" />
        </mxCell>
        <mxCell id="Ytw2WS5rdy1qP2I7gWzr-23" value="" style="line;strokeWidth=1;fillColor=none;align=left;verticalAlign=middle;spacingTop=-1;spacingLeft=3;spacingRight=3;rotatable=0;labelPosition=right;points=[];portConstraint=eastwest;strokeColor=inherit;" vertex="1" parent="Ytw2WS5rdy1qP2I7gWzr-21">
          <mxGeometry y="150" width="190" height="8" as="geometry" />
        </mxCell>
        <mxCell id="Ytw2WS5rdy1qP2I7gWzr-25" value="RightTriangle" style="swimlane;fontStyle=1;align=center;verticalAlign=top;childLayout=stackLayout;horizontal=1;startSize=26;horizontalStack=0;resizeParent=1;resizeParentMax=0;resizeLast=0;collapsible=1;marginBottom=0;whiteSpace=wrap;html=1;" vertex="1" parent="WIyWlLk6GJQsqaUBKTNV-1">
          <mxGeometry x="570" y="483" width="190" height="158" as="geometry" />
        </mxCell>
        <mxCell id="Ytw2WS5rdy1qP2I7gWzr-26" value="&lt;div&gt;&lt;div&gt;char Color {get; set;}&lt;/div&gt;&lt;div&gt;char BackgroundColor {get; set;}&lt;/div&gt;int CenterX {get; set;}&lt;/div&gt;&lt;div&gt;int CenterY {get; set;}&lt;/div&gt;&lt;div&gt;int Length {get; set;}&lt;/div&gt;&lt;div&gt;String? Name {get; set;&lt;/div&gt;" style="text;strokeColor=none;fillColor=none;align=left;verticalAlign=top;spacingLeft=4;spacingRight=4;overflow=hidden;rotatable=0;points=[[0,0.5],[1,0.5]];portConstraint=eastwest;whiteSpace=wrap;html=1;" vertex="1" parent="Ytw2WS5rdy1qP2I7gWzr-25">
          <mxGeometry y="26" width="190" height="124" as="geometry" />
        </mxCell>
        <mxCell id="Ytw2WS5rdy1qP2I7gWzr-27" value="" style="line;strokeWidth=1;fillColor=none;align=left;verticalAlign=middle;spacingTop=-1;spacingLeft=3;spacingRight=3;rotatable=0;labelPosition=right;points=[];portConstraint=eastwest;strokeColor=inherit;" vertex="1" parent="Ytw2WS5rdy1qP2I7gWzr-25">
          <mxGeometry y="150" width="190" height="8" as="geometry" />
        </mxCell>
        <mxCell id="Ytw2WS5rdy1qP2I7gWzr-35" style="edgeStyle=orthogonalEdgeStyle;rounded=0;orthogonalLoop=1;jettySize=auto;html=1;exitX=0.5;exitY=0;exitDx=0;exitDy=0;entryX=0.5;entryY=1;entryDx=0;entryDy=0;endArrow=block;endFill=0;" edge="1" parent="WIyWlLk6GJQsqaUBKTNV-1" source="Ytw2WS5rdy1qP2I7gWzr-28" target="Ytw2WS5rdy1qP2I7gWzr-17">
          <mxGeometry relative="1" as="geometry" />
        </mxCell>
        <mxCell id="Ytw2WS5rdy1qP2I7gWzr-28" value="Circle" style="swimlane;fontStyle=1;align=center;verticalAlign=top;childLayout=stackLayout;horizontal=1;startSize=26;horizontalStack=0;resizeParent=1;resizeParentMax=0;resizeLast=0;collapsible=1;marginBottom=0;whiteSpace=wrap;html=1;" vertex="1" parent="WIyWlLk6GJQsqaUBKTNV-1">
          <mxGeometry x="80" y="685" width="190" height="158" as="geometry" />
        </mxCell>
        <mxCell id="Ytw2WS5rdy1qP2I7gWzr-29" value="&lt;div&gt;&lt;div&gt;char Color {get; set;}&lt;/div&gt;&lt;div&gt;char BackgroundColor {get; set;}&lt;/div&gt;int CenterX {get; set;}&lt;/div&gt;&lt;div&gt;int CenterY {get; set;}&lt;/div&gt;&lt;div&gt;int FirstRadius {get; set;}&lt;/div&gt;&lt;div&gt;int SecondRadius {get; set}&lt;/div&gt;&lt;div&gt;String? Name {get; set;}&lt;/div&gt;" style="text;strokeColor=none;fillColor=none;align=left;verticalAlign=top;spacingLeft=4;spacingRight=4;overflow=hidden;rotatable=0;points=[[0,0.5],[1,0.5]];portConstraint=eastwest;whiteSpace=wrap;html=1;" vertex="1" parent="Ytw2WS5rdy1qP2I7gWzr-28">
          <mxGeometry y="26" width="190" height="124" as="geometry" />
        </mxCell>
        <mxCell id="Ytw2WS5rdy1qP2I7gWzr-30" value="" style="line;strokeWidth=1;fillColor=none;align=left;verticalAlign=middle;spacingTop=-1;spacingLeft=3;spacingRight=3;rotatable=0;labelPosition=right;points=[];portConstraint=eastwest;strokeColor=inherit;" vertex="1" parent="Ytw2WS5rdy1qP2I7gWzr-28">
          <mxGeometry y="150" width="190" height="8" as="geometry" />
        </mxCell>
        <mxCell id="Ytw2WS5rdy1qP2I7gWzr-36" style="edgeStyle=orthogonalEdgeStyle;rounded=0;orthogonalLoop=1;jettySize=auto;html=1;exitX=0.5;exitY=0;exitDx=0;exitDy=0;entryX=0.5;entryY=1;entryDx=0;entryDy=0;endArrow=block;endFill=0;" edge="1" parent="WIyWlLk6GJQsqaUBKTNV-1" source="Ytw2WS5rdy1qP2I7gWzr-32" target="Ytw2WS5rdy1qP2I7gWzr-21">
          <mxGeometry relative="1" as="geometry" />
        </mxCell>
        <mxCell id="Ytw2WS5rdy1qP2I7gWzr-32" value="Square" style="swimlane;fontStyle=1;align=center;verticalAlign=top;childLayout=stackLayout;horizontal=1;startSize=26;horizontalStack=0;resizeParent=1;resizeParentMax=0;resizeLast=0;collapsible=1;marginBottom=0;whiteSpace=wrap;html=1;" vertex="1" parent="WIyWlLk6GJQsqaUBKTNV-1">
          <mxGeometry x="325" y="685" width="190" height="158" as="geometry" />
        </mxCell>
        <mxCell id="Ytw2WS5rdy1qP2I7gWzr-33" value="&lt;div&gt;&lt;div&gt;char Color {get; set;}&lt;/div&gt;&lt;div&gt;char BackgroundColor {get; set;}&lt;/div&gt;&lt;/div&gt;&lt;div&gt;int CenterX {get; set;}&lt;/div&gt;&lt;div&gt;int CenterY {get; set;}&lt;/div&gt;&lt;div&gt;int Length {get; set;}&lt;/div&gt;&lt;div&gt;int Width {get; set;} &lt;br&gt;&lt;/div&gt;&lt;div&gt;String? Name {get; set;}&lt;/div&gt;" style="text;strokeColor=none;fillColor=none;align=left;verticalAlign=top;spacingLeft=4;spacingRight=4;overflow=hidden;rotatable=0;points=[[0,0.5],[1,0.5]];portConstraint=eastwest;whiteSpace=wrap;html=1;" vertex="1" parent="Ytw2WS5rdy1qP2I7gWzr-32">
          <mxGeometry y="26" width="190" height="124" as="geometry" />
        </mxCell>
        <mxCell id="Ytw2WS5rdy1qP2I7gWzr-34" value="" style="line;strokeWidth=1;fillColor=none;align=left;verticalAlign=middle;spacingTop=-1;spacingLeft=3;spacingRight=3;rotatable=0;labelPosition=right;points=[];portConstraint=eastwest;strokeColor=inherit;" vertex="1" parent="Ytw2WS5rdy1qP2I7gWzr-32">
          <mxGeometry y="150" width="190" height="8" as="geometry" />
        </mxCell>
        <mxCell id="Ytw2WS5rdy1qP2I7gWzr-41" value="" style="endArrow=block;html=1;rounded=0;dashed=1;endFill=0;entryX=0;entryY=1;entryDx=0;entryDy=0;exitX=0.5;exitY=0;exitDx=0;exitDy=0;" edge="1" parent="WIyWlLk6GJQsqaUBKTNV-1" source="Ytw2WS5rdy1qP2I7gWzr-17" target="Ytw2WS5rdy1qP2I7gWzr-2">
          <mxGeometry width="50" height="50" relative="1" as="geometry">
            <mxPoint x="90" y="390" as="sourcePoint" />
            <mxPoint x="140" y="340" as="targetPoint" />
          </mxGeometry>
        </mxCell>
        <mxCell id="Ytw2WS5rdy1qP2I7gWzr-42" value="" style="endArrow=block;html=1;rounded=0;dashed=1;endFill=0;entryX=1;entryY=1;entryDx=0;entryDy=0;exitX=0.5;exitY=0;exitDx=0;exitDy=0;" edge="1" parent="WIyWlLk6GJQsqaUBKTNV-1" source="Ytw2WS5rdy1qP2I7gWzr-25" target="Ytw2WS5rdy1qP2I7gWzr-2">
          <mxGeometry width="50" height="50" relative="1" as="geometry">
            <mxPoint x="100" y="400" as="sourcePoint" />
            <mxPoint x="150" y="350" as="targetPoint" />
          </mxGeometry>
        </mxCell>
        <mxCell id="Ytw2WS5rdy1qP2I7gWzr-43" value="" style="endArrow=block;html=1;rounded=0;dashed=1;endFill=0;entryX=0.5;entryY=1;entryDx=0;entryDy=0;exitX=0.5;exitY=0;exitDx=0;exitDy=0;" edge="1" parent="WIyWlLk6GJQsqaUBKTNV-1" source="Ytw2WS5rdy1qP2I7gWzr-21" target="Ytw2WS5rdy1qP2I7gWzr-2">
          <mxGeometry width="50" height="50" relative="1" as="geometry">
            <mxPoint x="110" y="410" as="sourcePoint" />
            <mxPoint x="160" y="360" as="targetPoint" />
          </mxGeometry>
        </mxCell>
        <mxCell id="Ytw2WS5rdy1qP2I7gWzr-44" value="Drawer" style="swimlane;fontStyle=1;align=center;verticalAlign=top;childLayout=stackLayout;horizontal=1;startSize=26;horizontalStack=0;resizeParent=1;resizeParentMax=0;resizeLast=0;collapsible=1;marginBottom=0;whiteSpace=wrap;html=1;" vertex="1" parent="WIyWlLk6GJQsqaUBKTNV-1">
          <mxGeometry x="640" y="-60" width="160" height="200" as="geometry" />
        </mxCell>
        <mxCell id="Ytw2WS5rdy1qP2I7gWzr-45" value="List&amp;lt;IFigure&amp;gt; Figures" style="text;strokeColor=none;fillColor=none;align=left;verticalAlign=top;spacingLeft=4;spacingRight=4;overflow=hidden;rotatable=0;points=[[0,0.5],[1,0.5]];portConstraint=eastwest;whiteSpace=wrap;html=1;" vertex="1" parent="Ytw2WS5rdy1qP2I7gWzr-44">
          <mxGeometry y="26" width="160" height="26" as="geometry" />
        </mxCell>
        <mxCell id="Ytw2WS5rdy1qP2I7gWzr-46" value="" style="line;strokeWidth=1;fillColor=none;align=left;verticalAlign=middle;spacingTop=-1;spacingLeft=3;spacingRight=3;rotatable=0;labelPosition=right;points=[];portConstraint=eastwest;strokeColor=inherit;" vertex="1" parent="Ytw2WS5rdy1qP2I7gWzr-44">
          <mxGeometry y="52" width="160" height="8" as="geometry" />
        </mxCell>
        <mxCell id="Ytw2WS5rdy1qP2I7gWzr-47" value="&lt;div&gt;DrawEllipse(): void&lt;/div&gt;&lt;div&gt;DrawRectangle(): void&lt;/div&gt;&lt;div&gt;DrawTriangle: void&lt;/div&gt;&lt;div&gt;DrawLine(): void&lt;/div&gt;&lt;div&gt;ShowInformation(): String&lt;/div&gt;&lt;div&gt;ReDraw(): void&lt;/div&gt;&lt;div&gt;UnDraw(): void&lt;/div&gt;&lt;div&gt;Fill(): void&lt;/div&gt;&lt;div&gt;Move(): void&lt;/div&gt;" style="text;strokeColor=none;fillColor=none;align=left;verticalAlign=top;spacingLeft=4;spacingRight=4;overflow=hidden;rotatable=0;points=[[0,0.5],[1,0.5]];portConstraint=eastwest;whiteSpace=wrap;html=1;" vertex="1" parent="Ytw2WS5rdy1qP2I7gWzr-44">
          <mxGeometry y="60" width="160" height="140" as="geometry" />
        </mxCell>
        <mxCell id="Ytw2WS5rdy1qP2I7gWzr-48" value="FileWorker" style="swimlane;fontStyle=1;align=center;verticalAlign=top;childLayout=stackLayout;horizontal=1;startSize=26;horizontalStack=0;resizeParent=1;resizeParentMax=0;resizeLast=0;collapsible=1;marginBottom=0;whiteSpace=wrap;html=1;" vertex="1" parent="WIyWlLk6GJQsqaUBKTNV-1">
          <mxGeometry x="70" y="-50" width="160" height="100" as="geometry" />
        </mxCell>
        <mxCell id="Ytw2WS5rdy1qP2I7gWzr-49" value="String FileName" style="text;strokeColor=none;fillColor=none;align=left;verticalAlign=top;spacingLeft=4;spacingRight=4;overflow=hidden;rotatable=0;points=[[0,0.5],[1,0.5]];portConstraint=eastwest;whiteSpace=wrap;html=1;" vertex="1" parent="Ytw2WS5rdy1qP2I7gWzr-48">
          <mxGeometry y="26" width="160" height="26" as="geometry" />
        </mxCell>
        <mxCell id="Ytw2WS5rdy1qP2I7gWzr-50" value="" style="line;strokeWidth=1;fillColor=none;align=left;verticalAlign=middle;spacingTop=-1;spacingLeft=3;spacingRight=3;rotatable=0;labelPosition=right;points=[];portConstraint=eastwest;strokeColor=inherit;" vertex="1" parent="Ytw2WS5rdy1qP2I7gWzr-48">
          <mxGeometry y="52" width="160" height="8" as="geometry" />
        </mxCell>
        <mxCell id="Ytw2WS5rdy1qP2I7gWzr-51" value="&lt;div&gt;Write(): bool&lt;/div&gt;&lt;div&gt;Read: List&amp;lt;IFigure&amp;gt;&lt;/div&gt;" style="text;strokeColor=none;fillColor=none;align=left;verticalAlign=top;spacingLeft=4;spacingRight=4;overflow=hidden;rotatable=0;points=[[0,0.5],[1,0.5]];portConstraint=eastwest;whiteSpace=wrap;html=1;" vertex="1" parent="Ytw2WS5rdy1qP2I7gWzr-48">
          <mxGeometry y="60" width="160" height="40" as="geometry" />
        </mxCell>
        <mxCell id="Ytw2WS5rdy1qP2I7gWzr-52" value="ChangeAction" style="swimlane;fontStyle=1;align=center;verticalAlign=top;childLayout=stackLayout;horizontal=1;startSize=26;horizontalStack=0;resizeParent=1;resizeParentMax=0;resizeLast=0;collapsible=1;marginBottom=0;whiteSpace=wrap;html=1;" vertex="1" parent="WIyWlLk6GJQsqaUBKTNV-1">
          <mxGeometry x="400" y="-50" width="160" height="100" as="geometry" />
        </mxCell>
        <mxCell id="Ytw2WS5rdy1qP2I7gWzr-53" value="List&amp;lt;List&amp;lt;IFigure&amp;gt;&amp;gt; storage" style="text;strokeColor=none;fillColor=none;align=left;verticalAlign=top;spacingLeft=4;spacingRight=4;overflow=hidden;rotatable=0;points=[[0,0.5],[1,0.5]];portConstraint=eastwest;whiteSpace=wrap;html=1;" vertex="1" parent="Ytw2WS5rdy1qP2I7gWzr-52">
          <mxGeometry y="26" width="160" height="26" as="geometry" />
        </mxCell>
        <mxCell id="Ytw2WS5rdy1qP2I7gWzr-54" value="" style="line;strokeWidth=1;fillColor=none;align=left;verticalAlign=middle;spacingTop=-1;spacingLeft=3;spacingRight=3;rotatable=0;labelPosition=right;points=[];portConstraint=eastwest;strokeColor=inherit;" vertex="1" parent="Ytw2WS5rdy1qP2I7gWzr-52">
          <mxGeometry y="52" width="160" height="8" as="geometry" />
        </mxCell>
        <mxCell id="Ytw2WS5rdy1qP2I7gWzr-55" value="&lt;div&gt;Decline(): List&amp;lt;IFigure&amp;gt;&lt;/div&gt;&lt;div&gt;Accept(): List&amp;lt;IFigure&amp;gt;&lt;/div&gt;" style="text;strokeColor=none;fillColor=none;align=left;verticalAlign=top;spacingLeft=4;spacingRight=4;overflow=hidden;rotatable=0;points=[[0,0.5],[1,0.5]];portConstraint=eastwest;whiteSpace=wrap;html=1;" vertex="1" parent="Ytw2WS5rdy1qP2I7gWzr-52">
          <mxGeometry y="60" width="160" height="40" as="geometry" />
        </mxCell>
        <mxCell id="Ytw2WS5rdy1qP2I7gWzr-56" value="Program" style="swimlane;fontStyle=1;align=center;verticalAlign=top;childLayout=stackLayout;horizontal=1;startSize=26;horizontalStack=0;resizeParent=1;resizeParentMax=0;resizeLast=0;collapsible=1;marginBottom=0;whiteSpace=wrap;html=1;" vertex="1" parent="WIyWlLk6GJQsqaUBKTNV-1">
          <mxGeometry x="400" y="-400" width="160" height="118" as="geometry" />
        </mxCell>
        <mxCell id="Ytw2WS5rdy1qP2I7gWzr-57" value="&lt;div&gt;Drawer drawer&lt;/div&gt;&lt;div&gt;FileWorker fileWorker&lt;/div&gt;&lt;div&gt;ChangeAction changeAction&lt;/div&gt;&lt;div&gt;int FigursCount&lt;/div&gt;" style="text;strokeColor=none;fillColor=none;align=left;verticalAlign=top;spacingLeft=4;spacingRight=4;overflow=hidden;rotatable=0;points=[[0,0.5],[1,0.5]];portConstraint=eastwest;whiteSpace=wrap;html=1;" vertex="1" parent="Ytw2WS5rdy1qP2I7gWzr-56">
          <mxGeometry y="26" width="160" height="84" as="geometry" />
        </mxCell>
        <mxCell id="Ytw2WS5rdy1qP2I7gWzr-58" value="" style="line;strokeWidth=1;fillColor=none;align=left;verticalAlign=middle;spacingTop=-1;spacingLeft=3;spacingRight=3;rotatable=0;labelPosition=right;points=[];portConstraint=eastwest;strokeColor=inherit;" vertex="1" parent="Ytw2WS5rdy1qP2I7gWzr-56">
          <mxGeometry y="110" width="160" height="8" as="geometry" />
        </mxCell>
        <mxCell id="Ytw2WS5rdy1qP2I7gWzr-60" value="" style="endArrow=classic;html=1;rounded=0;exitX=0.486;exitY=0.995;exitDx=0;exitDy=0;exitPerimeter=0;entryX=0;entryY=0;entryDx=0;entryDy=0;" edge="1" parent="WIyWlLk6GJQsqaUBKTNV-1" source="Ytw2WS5rdy1qP2I7gWzr-51" target="Ytw2WS5rdy1qP2I7gWzr-2">
          <mxGeometry width="50" height="50" relative="1" as="geometry">
            <mxPoint x="210" y="210" as="sourcePoint" />
            <mxPoint x="260" y="160" as="targetPoint" />
          </mxGeometry>
        </mxCell>
        <mxCell id="Ytw2WS5rdy1qP2I7gWzr-61" value="" style="endArrow=classic;html=1;rounded=0;exitX=0.489;exitY=0.935;exitDx=0;exitDy=0;exitPerimeter=0;entryX=0.5;entryY=0;entryDx=0;entryDy=0;" edge="1" parent="WIyWlLk6GJQsqaUBKTNV-1" source="Ytw2WS5rdy1qP2I7gWzr-55" target="Ytw2WS5rdy1qP2I7gWzr-2">
          <mxGeometry width="50" height="50" relative="1" as="geometry">
            <mxPoint x="414" y="90" as="sourcePoint" />
            <mxPoint x="591" y="304" as="targetPoint" />
          </mxGeometry>
        </mxCell>
        <mxCell id="Ytw2WS5rdy1qP2I7gWzr-62" value="" style="endArrow=classic;html=1;rounded=0;exitX=0.5;exitY=1;exitDx=0;exitDy=0;entryX=1;entryY=0;entryDx=0;entryDy=0;" edge="1" parent="WIyWlLk6GJQsqaUBKTNV-1" source="Ytw2WS5rdy1qP2I7gWzr-44" target="Ytw2WS5rdy1qP2I7gWzr-2">
          <mxGeometry width="50" height="50" relative="1" as="geometry">
            <mxPoint x="631.5" y="120" as="sourcePoint" />
            <mxPoint x="808.5" y="334" as="targetPoint" />
          </mxGeometry>
        </mxCell>
        <mxCell id="Ytw2WS5rdy1qP2I7gWzr-63" value="" style="endArrow=classic;html=1;rounded=0;exitX=0;exitY=1;exitDx=0;exitDy=0;entryX=0.5;entryY=0;entryDx=0;entryDy=0;" edge="1" parent="WIyWlLk6GJQsqaUBKTNV-1" source="Ytw2WS5rdy1qP2I7gWzr-56" target="Ytw2WS5rdy1qP2I7gWzr-48">
          <mxGeometry width="50" height="50" relative="1" as="geometry">
            <mxPoint x="325" y="-264" as="sourcePoint" />
            <mxPoint x="502" y="-50" as="targetPoint" />
          </mxGeometry>
        </mxCell>
        <mxCell id="Ytw2WS5rdy1qP2I7gWzr-64" value="" style="endArrow=classic;html=1;rounded=0;exitX=1;exitY=1;exitDx=0;exitDy=0;entryX=0.5;entryY=0;entryDx=0;entryDy=0;" edge="1" parent="WIyWlLk6GJQsqaUBKTNV-1" source="Ytw2WS5rdy1qP2I7gWzr-56" target="Ytw2WS5rdy1qP2I7gWzr-44">
          <mxGeometry width="50" height="50" relative="1" as="geometry">
            <mxPoint x="410" y="-272" as="sourcePoint" />
            <mxPoint x="160" y="-40" as="targetPoint" />
          </mxGeometry>
        </mxCell>
        <mxCell id="Ytw2WS5rdy1qP2I7gWzr-65" value="" style="endArrow=classic;html=1;rounded=0;exitX=0.5;exitY=1;exitDx=0;exitDy=0;entryX=0.5;entryY=0;entryDx=0;entryDy=0;" edge="1" parent="WIyWlLk6GJQsqaUBKTNV-1" source="Ytw2WS5rdy1qP2I7gWzr-56" target="Ytw2WS5rdy1qP2I7gWzr-52">
          <mxGeometry width="50" height="50" relative="1" as="geometry">
            <mxPoint x="420" y="-262" as="sourcePoint" />
            <mxPoint x="170" y="-30" as="targetPoint" />
          </mxGeometry>
        </mxCell>
      </root>
    </mxGraphModel>
  </diagram>
</mxfile>
